<?xml version="1.0" encoding="UTF-8"?>
<svg id="Layer_2" data-name="Layer 2" xmlns="http://www.w3.org/2000/svg" viewBox="0 0 426.15 618.95">
  <defs>
    <style>
      .cls-1 {
        fill: #fff;
        fill-rule: evenodd;
      }
    </style>
  </defs>
  <g id="Layer_1-2" data-name="Layer 1">
    <path class="cls-1" d="m353.01,32.03c-3.24-1.34-6.71-2.03-10.22-2.03h0c-5.28,0-10.45,1.57-14.84,4.5-4.39,2.93-7.81,7.11-9.84,11.99-2.02,4.88-2.55,10.25-1.52,15.43,1.03,5.18,3.57,9.94,7.31,13.67,3.73,3.74,8.49,6.28,13.67,7.31,5.18,1.03,10.55.5,15.43-1.52,4.88-2.02,9.05-5.44,11.99-9.84,2.93-4.39,4.5-9.56,4.5-14.84h0c0-3.51-.69-6.98-2.03-10.22-1.34-3.24-3.31-6.18-5.79-8.66-2.48-2.48-5.42-4.45-8.66-5.79ZM342.79,0c7.45,0,14.82,1.46,21.7,4.31,6.88,2.85,13.13,7.03,18.4,12.29,5.27,5.27,9.44,11.52,12.29,18.4,2.85,6.88,4.31,14.25,4.31,21.7M342.78,0c-11.21,0-22.18,3.33-31.5,9.56-9.32,6.23-16.59,15.09-20.88,25.45-4.29,10.36-5.42,21.76-3.23,32.76,2.19,11,7.59,21.1,15.52,29.03,7.93,7.93,18.04,13.33,29.04,15.52,11,2.19,22.4,1.07,32.76-3.23,10.36-4.29,19.22-11.56,25.45-20.88,6.23-9.32,9.56-20.29,9.56-31.5"/>
    <path class="cls-1" d="m35,142.59c-2.76,0-5,2.24-5,5v271.89H0V147.59c0-19.33,15.67-35,35-35h257c2.11,0,4.42.18,6.93.74,7.26,1.62,32.97,8.12,57.21,24.07,24.48,16.1,49.17,43.12,49.17,85.32,0,19.1-.08,35.27-1.17,48.94-1.1,13.73-3.27,25.94-7.98,36.94-9.8,22.91-28.85,36.67-58.41,51.31l-81.19,41.98h6.6c27.24,1.01,42.76,15.64,50.66,31.01,7.37,14.34,8.03,28.91,8.09,32.59,0,.45.01.74.02,1,1.22,30.29-14.16,48.83-30.55,59.13-15.56,9.79-32.08,12.35-36.44,12.9-1.43.18-2.67.22-3.66.22h-122.07c-19.33,0-35-15.67-35-35v-30.37c0-13.09,7.3-25.08,18.92-31.09l211.07-109.14.12-.06c28.3-14.01,38.88-23.71,44.26-36.28,2.89-6.76,4.68-15.32,5.66-27.53.98-12.27,1.08-27.21,1.08-46.56,0-28.51-16.08-47.39-35.65-60.25-19.8-13.02-41.42-18.54-47.29-19.86.02,0,.02,0-.01,0-.04,0-.15-.01-.36-.01H35Zm163.54,289.29l-71.62,37.04c-1.66.86-2.7,2.57-2.7,4.44v30.37c0,2.76,2.24,5,5,5h122.11c3.02-.4,14.19-2.3,24.09-8.52,9.25-5.82,17.24-15.1,16.54-32.53-.02-.63-.04-1.23-.04-1.67-.04-2.04-.53-11.14-4.78-19.42-3.7-7.21-10.22-14.11-24.82-14.72h-63.77Z"/>
    <path class="cls-1" d="m94.21,228.38c0-19.33,15.67-35,35-35h119.71c2.22,0,4.79.21,7.53.9,5.1,1.29,18.11,5.16,30.33,13.91,12.5,8.95,25.17,23.86,25.98,46.56h0s.34,9.11.34,9.11l-29.98,1.11-.34-9.12h0v-.02c-.38-10.62-5.92-17.85-13.47-23.25-7.76-5.55-16.54-8.27-20.14-9.19-.05,0-.13,0-.25,0h-119.71c-2.76,0-5,2.24-5,5v90.68c0,2.76,2.24,5,5,5h24.65v30h-24.65c-19.33,0-35-15.67-35-35v-90.68Z"/>
    <path class="cls-1" d="m329.67,361.46s.02,0,1.3-14.94q1.29-14.95,1.31-14.94h.02s.05,0,.05,0c.04,0,.08,0,.13.01.1,0,.22.02.37.04.29.03.67.07,1.13.14.92.12,2.19.31,3.73.59,3.08.56,7.34,1.51,12.33,3.08,9.94,3.13,23.11,8.84,35.77,19.18,26.24,21.44,47.15,60.22,38.26,127.13-9.12,68.62-50.82,103.46-89.75,120.51-38.09,16.68-73.94,16.7-75.67,16.7h-.02,0H35.04C15.71,618.95.04,603.28.04,583.95v-164.47h30v164.47c0,2.76,2.24,5,5,5h223.71c.17,0,31.1.03,63.52-14.18,31.83-13.94,64.64-41.2,72.05-96.98,7.73-58.18-10.48-86.04-27.5-99.95-8.98-7.33-18.47-11.49-25.8-13.79-3.64-1.15-6.67-1.81-8.7-2.18-1.02-.19-1.78-.3-2.23-.36-.23-.03-.38-.05-.45-.05-.04,0-.05,0-.04,0h.03s.03,0,.03,0h.02Z"/>
    <path class="cls-1" d="m283.11,255.12v-126.59h30v126.59c0,13.19-7.41,25.26-19.18,31.22L21.78,424.26l-13.56-26.76,272.15-137.92c1.68-.85,2.74-2.58,2.74-4.46Z"/>
  </g>
</svg>