<svg width="107" height="136" viewBox="0 0 107 136" fill="none" xmlns="http://www.w3.org/2000/svg">
<path d="M18.88 27.9231C18.88 32.8478 14.65 36.8367 9.44 36.8367C4.23 36.8367 0 32.8478 0 27.9231C0 22.9984 4.23 19 9.44 19C14.65 19 18.88 22.9889 18.88 27.9231Z" fill="#F8B711"/>
<path d="M18.88 60.3165C18.88 65.2412 14.65 69.2395 9.44 69.2395C4.23 69.2395 0 65.2412 0 60.3165C0 55.3918 4.22 51.3934 9.43 51.3934C14.64 51.3934 18.87 55.3918 18.87 60.3165H18.88Z" fill="#F8B711"/>
<path d="M18.86 60.3259H0V113.656H18.86V60.3259Z" fill="#F8B711"/>
<path d="M18.87 113.647C18.87 118.572 14.64 122.57 9.43 122.57C4.22 122.57 0 118.581 0 113.647C0 108.713 4.22 104.724 9.43 104.724C14.64 104.724 18.87 108.722 18.87 113.647V113.647Z" fill="#F8B711"/>
<path d="M62.87 9.44C62.87 14.65 58.65 18.87 53.43 18.87C48.21 18.87 44 14.65 44 9.44C44 4.23 48.23 0 53.43 0C58.63 0 62.87 4.22 62.87 9.44V9.44Z" fill="#C90000"/>
<path d="M62.87 43.71C62.87 48.92 58.65 53.15 53.43 53.15C48.21 53.15 44 48.93 44 43.71C44 38.49 48.22 34.27 53.43 34.27C58.64 34.27 62.87 38.49 62.87 43.71Z" fill="#C90000"/>
<path d="M62.87 43.71H44V125.82H62.87V43.71Z" fill="#C90000"/>
<path d="M62.87 125.82C62.87 131.03 58.65 135.26 53.43 135.26C48.21 135.26 44 131.04 44 125.82C44 120.6 48.22 116.38 53.43 116.38C58.64 116.38 62.87 120.6 62.87 125.82Z" fill="#C90000"/>
<path d="M106.87 27.9231C106.87 32.8478 102.65 36.8367 97.43 36.8367C92.21 36.8367 88 32.8478 88 27.9231C88 22.9984 92.22 19 97.43 19C102.64 19 106.87 22.9889 106.87 27.9231Z" fill="#2137FF"/>
<path d="M106.87 60.8458C106.87 65.7705 102.65 69.7689 97.43 69.7689C92.21 69.7689 88 65.7705 88 60.8458C88 55.9211 92.22 51.9227 97.43 51.9227C102.64 51.9227 106.87 55.9116 106.87 60.8458V60.8458Z" fill="#2137FF"/>
<path d="M106.87 60.3165H88V113.647H106.87V60.3165Z" fill="#2137FF"/>
<path d="M106.87 113.647C106.87 118.572 102.65 122.57 97.43 122.57C92.21 122.57 88 118.572 88 113.647C88 108.722 92.22 104.724 97.43 104.724C102.64 104.724 106.87 108.713 106.87 113.647V113.647Z" fill="#2137FF"/>
</svg>
