<?xml version="1.0" encoding="utf-8"?>
<!-- Generator: Adobe Illustrator 27.9.0, SVG Export Plug-In . SVG Version: 6.00 Build 0)  -->
<svg version="1.1" id="Layer_1" xmlns="http://www.w3.org/2000/svg" xmlns:xlink="http://www.w3.org/1999/xlink" x="0px" y="0px"
	 viewBox="0 0 27.7 27.7" style="enable-background:new 0 0 27.7 27.7;" xml:space="preserve">
<style type="text/css">
	.st0{fill:#FFFFFF;}
</style>
<g>
	<path d="M9.6,25.5c-0.8,0-1.4-0.6-1.4-1.4s0.6-1.4,1.4-1.4c0.8,0,1.6-0.2,2.4-0.7c0.2-0.1,0.3-0.2,0.5-0.3v-6.4h-0.3
		c-0.8,0-1.4-0.6-1.4-1.4c0-0.8,0.6-1.4,1.4-1.4h0.3V6c-0.1-0.1-0.3-0.2-0.5-0.3C11.2,5.3,10.4,5,9.6,5C8.8,5,8.2,4.4,8.2,3.6
		s0.6-1.4,1.4-1.4c1.6,0,3,0.6,3.8,1c0.2,0.1,0.3,0.2,0.5,0.3c0.1-0.1,0.3-0.2,0.5-0.3c1.1-0.7,2.5-1,3.8-1c0.8,0,1.4,0.6,1.4,1.4
		S18.9,5,18.1,5c-0.8,0-1.6,0.2-2.4,0.7c-0.2,0.1-0.3,0.2-0.5,0.3v6.4h0.3c0.8,0,1.4,0.6,1.4,1.4c0,0.8-0.6,1.4-1.4,1.4h-0.3v6.4
		c0.1,0.1,0.3,0.2,0.5,0.3c0.8,0.4,1.6,0.7,2.4,0.7c0.8,0,1.4,0.6,1.4,1.4s-0.6,1.4-1.4,1.4c-1.3,0-2.6-0.4-3.8-1
		c-0.2-0.1-0.3-0.2-0.5-0.3c-0.2,0.1-0.3,0.2-0.5,0.3C12.2,25.1,10.9,25.5,9.6,25.5L9.6,25.5z"/>
	<path class="st0" d="M18.1,2.7c0.5,0,0.9,0.4,0.9,0.9s-0.4,0.9-0.9,0.9c-1.1,0-2,0.4-2.7,0.7c-0.3,0.1-0.5,0.3-0.7,0.5V13h0.9
		c0.5,0,0.9,0.4,0.9,0.9c0,0.5-0.4,0.9-0.9,0.9h-0.9V22c0.2,0.1,0.4,0.3,0.7,0.5c0.7,0.4,1.6,0.7,2.7,0.7c0.5,0,0.9,0.4,0.9,0.9
		s-0.4,0.9-0.9,0.9c-1.2,0-2.4-0.3-3.5-1c-0.3-0.1-0.5-0.3-0.8-0.5c-0.2,0.2-0.5,0.3-0.8,0.5c-1.1,0.6-2.3,1-3.5,1
		c-0.5,0-0.9-0.4-0.9-0.9c0-0.5,0.4-0.9,0.9-0.9c1.1,0,2-0.4,2.7-0.7c0.3-0.2,0.6-0.4,0.7-0.5v-7.3h-0.9c-0.5,0-0.9-0.4-0.9-0.9
		c0-0.5,0.4-0.9,0.9-0.9H13V5.7c-0.2-0.2-0.5-0.4-0.7-0.5c-0.8-0.5-1.7-0.7-2.7-0.7c-0.5,0-0.9-0.4-0.9-0.9s0.4-0.9,0.9-0.9
		c1.5,0,2.7,0.5,3.5,1c0.3,0.2,0.5,0.3,0.8,0.5C14,4,14.3,3.9,14.6,3.7C15.7,3.1,16.9,2.8,18.1,2.7 M18.1,1.6L18.1,1.6
		c-1.4,0-2.8,0.4-4.1,1.1c-0.1,0-0.1,0.1-0.2,0.1c-0.1,0-0.1-0.1-0.2-0.1c-0.9-0.5-2.3-1.1-4.1-1.1c-1.1,0-2,0.9-2,2s0.9,2,2,2
		c0.7,0,1.5,0.2,2.1,0.6c0.1,0,0.1,0.1,0.2,0.1v5.6c-1,0.1-1.7,1-1.7,2s0.7,1.8,1.7,2v5.6c-0.1,0-0.1,0.1-0.2,0.1
		c-0.7,0.4-1.4,0.6-2.1,0.6c-1.1,0-2,0.9-2,2c0,1.1,0.9,2,2,2c1.4,0,2.8-0.4,4.1-1.1c0.1,0,0.1-0.1,0.2-0.1c0.1,0,0.1,0.1,0.2,0.1
		c1.2,0.7,2.6,1.1,4.1,1.1c1.1,0,2-0.9,2-2s-0.9-2-2-2c-0.7,0-1.4-0.2-2.1-0.6c-0.1,0-0.1-0.1-0.2-0.1v-5.6c1-0.1,1.7-1,1.7-2
		s-0.7-1.8-1.7-2V6.3c0.1,0,0.1-0.1,0.2-0.1c0.7-0.4,1.4-0.6,2.1-0.6c1.1,0,2-0.9,2-2S19.2,1.6,18.1,1.6L18.1,1.6z"/>
</g>
</svg>
